<?xml version="1.0" encoding="UTF-8" standalone="no"?><!DOCTYPE svg PUBLIC "-//W3C//DTD SVG 1.1//EN" "http://www.w3.org/Graphics/SVG/1.1/DTD/svg11.dtd"><svg width="19306px" height="6489px" version="1.1" xmlns="http://www.w3.org/2000/svg" xmlns:xlink="http://www.w3.org/1999/xlink" xml:space="preserve" xmlns:serif="http://www.serif.com/" style="fill-rule:evenodd;clip-rule:evenodd;stroke-linejoin:round;stroke-miterlimit:2;"><g transform="matrix(1,0,0,1,-403543,-18514.2)"><g transform="matrix(167.565,0,0,74.507,355020,-170846)"><path d="M404.599,2547.95L404.599,2622.14C404.599,2625.46 403.4,2628.16 401.922,2628.16L292.445,2628.16C290.968,2628.16 289.768,2625.46 289.768,2622.14L289.768,2547.95C289.768,2544.63 290.968,2541.93 292.445,2541.93L401.922,2541.93C403.4,2541.93 404.599,2544.63 404.599,2547.95Z" style="fill:white;"/><path d="M404.79,2547.95L404.79,2622.14C404.79,2625.7 403.505,2628.59 401.922,2628.59L292.445,2628.59C290.862,2628.59 289.577,2625.7 289.577,2622.14L289.577,2547.95C289.577,2544.39 290.862,2541.5 292.445,2541.5L401.922,2541.5C403.505,2541.5 404.79,2544.39 404.79,2547.95ZM404.599,2547.95C404.599,2544.63 403.4,2541.93 401.922,2541.93L292.445,2541.93C290.968,2541.93 289.768,2544.63 289.768,2547.95L289.768,2622.14C289.768,2625.46 290.968,2628.16 292.445,2628.16L401.922,2628.16C403.4,2628.16 404.599,2625.46 404.599,2622.14L404.599,2547.95Z"/></g><g transform="matrix(92.5208,0,0,74.4368,376765,-170667)"><path d="M492.896,2624.68L294.612,2624.68C293.52,2624.68 292.634,2623.57 292.634,2622.22L292.634,2547.95C292.634,2546.59 293.52,2545.49 294.612,2545.49L492.896,2545.49C493.988,2545.49 494.874,2546.59 494.874,2547.95L494.874,2622.22C494.874,2623.57 493.988,2624.68 492.896,2624.68Z" style="fill:rgb(0,115,198);"/></g><g transform="matrix(337.783,0,0,337.783,404575,20686.2)"><path d="M0,0L1.906,-3.233L9.101,-3.233L10.997,0L9.101,3.233L1.906,3.233L0,0Z" style="fill:white;"/></g><g transform="matrix(3.836,0,0,3.836,413652,8457.44)"><path d="M2047.82,3396.45C2047.82,3404.78 2042.82,3412 2035.04,3414.78C2027.82,3418.11 2018.93,3415.89 2013.37,3409.78L1898.37,3282.56L1576.71,3725.17L1409.49,3603.5L1731.15,3161.45L1574.49,3090.89C1567.26,3087.56 1562.26,3079.78 1562.82,3072C1563.37,3063.67 1568.93,3057 1576.71,3054.22L2022.26,2909.22C2035.04,2904.78 2047.82,2914.22 2047.82,2927.56L2047.82,3396.45Z" style="fill:white;"/></g><g transform="matrix(1.01623,0,0,1.01623,437128,2776.89)"><g transform="matrix(1543.53,0,0,1543.53,-31509.4,18256.1)"><path d="M0.579,-0.414C0.614,-0.394 0.641,-0.369 0.661,-0.337C0.681,-0.305 0.69,-0.268 0.69,-0.228C0.69,-0.185 0.678,-0.144 0.652,-0.106C0.627,-0.069 0.591,-0.038 0.545,-0.016C0.499,0.007 0.447,0.019 0.388,0.019C0.339,0.019 0.29,0.009 0.24,-0.011C0.19,-0.031 0.144,-0.061 0.102,-0.103L0.208,-0.213C0.232,-0.186 0.26,-0.164 0.293,-0.148C0.326,-0.132 0.357,-0.125 0.388,-0.125C0.416,-0.125 0.441,-0.129 0.461,-0.139C0.481,-0.149 0.496,-0.163 0.507,-0.179C0.517,-0.196 0.522,-0.215 0.522,-0.234C0.522,-0.255 0.517,-0.273 0.506,-0.289C0.496,-0.305 0.481,-0.317 0.463,-0.326C0.444,-0.335 0.423,-0.339 0.4,-0.339L0.314,-0.338L0.314,-0.476L0.394,-0.476C0.415,-0.476 0.435,-0.48 0.452,-0.489C0.469,-0.497 0.483,-0.509 0.493,-0.524C0.502,-0.54 0.507,-0.557 0.507,-0.576C0.507,-0.593 0.502,-0.609 0.49,-0.624C0.479,-0.639 0.464,-0.651 0.446,-0.66C0.427,-0.669 0.408,-0.674 0.387,-0.674C0.359,-0.674 0.33,-0.667 0.3,-0.653C0.27,-0.639 0.244,-0.62 0.22,-0.596L0.124,-0.71C0.193,-0.782 0.281,-0.818 0.387,-0.818C0.441,-0.818 0.49,-0.807 0.532,-0.786C0.574,-0.765 0.607,-0.736 0.631,-0.7C0.654,-0.664 0.666,-0.625 0.666,-0.583C0.666,-0.545 0.658,-0.512 0.643,-0.483C0.628,-0.455 0.607,-0.431 0.579,-0.414Z" style="fill:rgb(239,62,66);fill-rule:nonzero;"/></g><g transform="matrix(1543.53,0,0,1543.53,-30200.9,18256.1)"><path d="M0.432,0.019C0.373,0.019 0.32,0.008 0.273,-0.013C0.227,-0.035 0.191,-0.065 0.164,-0.103C0.138,-0.141 0.125,-0.184 0.125,-0.233C0.125,-0.263 0.13,-0.29 0.141,-0.316C0.151,-0.342 0.166,-0.364 0.185,-0.383C0.203,-0.401 0.225,-0.415 0.25,-0.423C0.219,-0.44 0.194,-0.463 0.177,-0.493C0.159,-0.522 0.15,-0.555 0.15,-0.59C0.15,-0.635 0.162,-0.675 0.186,-0.709C0.209,-0.744 0.242,-0.771 0.285,-0.79C0.327,-0.808 0.376,-0.818 0.432,-0.818C0.488,-0.818 0.537,-0.808 0.58,-0.79C0.623,-0.771 0.656,-0.744 0.679,-0.709C0.703,-0.675 0.714,-0.635 0.714,-0.59C0.714,-0.555 0.706,-0.523 0.688,-0.494C0.671,-0.464 0.647,-0.441 0.616,-0.423C0.64,-0.415 0.662,-0.401 0.68,-0.382C0.699,-0.362 0.713,-0.339 0.724,-0.313C0.734,-0.287 0.739,-0.26 0.739,-0.233C0.739,-0.184 0.726,-0.141 0.7,-0.103C0.674,-0.065 0.637,-0.035 0.591,-0.013C0.544,0.008 0.491,0.019 0.432,0.019ZM0.432,-0.492C0.455,-0.492 0.476,-0.496 0.496,-0.505C0.515,-0.514 0.531,-0.526 0.542,-0.541C0.554,-0.556 0.56,-0.572 0.56,-0.59C0.56,-0.608 0.555,-0.625 0.544,-0.64C0.533,-0.654 0.518,-0.666 0.498,-0.674C0.479,-0.682 0.457,-0.686 0.432,-0.686C0.407,-0.686 0.385,-0.682 0.366,-0.674C0.347,-0.666 0.331,-0.654 0.321,-0.64C0.31,-0.625 0.304,-0.608 0.304,-0.59C0.304,-0.572 0.31,-0.556 0.322,-0.541C0.333,-0.526 0.349,-0.514 0.369,-0.505C0.388,-0.496 0.409,-0.492 0.432,-0.492ZM0.432,-0.118C0.461,-0.118 0.487,-0.123 0.51,-0.132C0.532,-0.142 0.55,-0.155 0.562,-0.173C0.574,-0.19 0.58,-0.21 0.58,-0.233C0.58,-0.256 0.574,-0.276 0.561,-0.294C0.548,-0.312 0.531,-0.326 0.508,-0.336C0.486,-0.347 0.46,-0.352 0.432,-0.352C0.404,-0.352 0.378,-0.347 0.356,-0.336C0.333,-0.326 0.316,-0.312 0.303,-0.294C0.291,-0.276 0.284,-0.256 0.284,-0.233C0.284,-0.21 0.29,-0.19 0.302,-0.173C0.315,-0.155 0.332,-0.142 0.354,-0.132C0.377,-0.123 0.403,-0.118 0.432,-0.118Z" style="fill:rgb(239,62,66);fill-rule:nonzero;"/></g></g><g transform="matrix(1.46792,0,0,1.46792,-71101.8,-22856.2)"><g transform="matrix(1092.19,0,0,1092.19,327091,30100.4)"><path d="M0.163,-0L0.163,-0.799L0.464,-0.799C0.513,-0.799 0.556,-0.789 0.595,-0.768C0.634,-0.748 0.664,-0.719 0.685,-0.682C0.707,-0.645 0.717,-0.603 0.717,-0.556C0.717,-0.506 0.707,-0.461 0.686,-0.422C0.665,-0.383 0.636,-0.352 0.598,-0.33C0.561,-0.308 0.518,-0.297 0.471,-0.297L0.293,-0.297L0.293,-0L0.163,-0ZM0.43,-0.419C0.48,-0.419 0.518,-0.431 0.544,-0.453C0.571,-0.476 0.584,-0.508 0.584,-0.55C0.584,-0.591 0.571,-0.622 0.544,-0.644C0.518,-0.665 0.48,-0.676 0.43,-0.676L0.293,-0.676L0.293,-0.419L0.43,-0.419Z" style="fill:white;fill-rule:nonzero;"/></g><g transform="matrix(1092.19,0,0,1092.19,328029,30100.4)"><path d="M0.49,-0.576L0.617,-0.576L0.617,-0L0.503,-0L0.503,-0.046L0.502,-0.064C0.486,-0.041 0.463,-0.023 0.433,-0.008C0.403,0.006 0.372,0.014 0.34,0.014C0.302,0.014 0.269,0.005 0.239,-0.011C0.209,-0.028 0.186,-0.051 0.169,-0.08C0.152,-0.109 0.144,-0.141 0.144,-0.176L0.144,-0.576L0.271,-0.576L0.271,-0.196C0.271,-0.181 0.276,-0.166 0.284,-0.153C0.292,-0.14 0.304,-0.13 0.318,-0.123C0.333,-0.115 0.349,-0.111 0.366,-0.111C0.406,-0.111 0.436,-0.124 0.458,-0.148C0.479,-0.173 0.49,-0.208 0.49,-0.254L0.49,-0.576Z" style="fill:white;fill-rule:nonzero;"/></g><g transform="matrix(1092.19,0,0,1092.19,328924,30100.4)"><path d="M0.42,-0.58C0.428,-0.58 0.436,-0.58 0.443,-0.579C0.451,-0.578 0.457,-0.577 0.46,-0.576L0.46,-0.449C0.451,-0.45 0.442,-0.451 0.434,-0.451C0.402,-0.451 0.374,-0.445 0.35,-0.433C0.325,-0.421 0.306,-0.404 0.292,-0.382C0.279,-0.36 0.272,-0.335 0.272,-0.306L0.272,-0L0.146,-0L0.146,-0.576L0.26,-0.576L0.26,-0.479C0.272,-0.511 0.292,-0.537 0.321,-0.554C0.351,-0.571 0.384,-0.58 0.42,-0.58Z" style="fill:white;fill-rule:nonzero;"/></g><g transform="matrix(1092.19,0,0,1092.19,329556,30100.4)"><path d="M0.621,-0L0.493,-0L0.493,-0.379C0.493,-0.395 0.489,-0.409 0.481,-0.422C0.472,-0.435 0.461,-0.446 0.447,-0.453C0.432,-0.461 0.416,-0.464 0.398,-0.464C0.359,-0.464 0.328,-0.452 0.307,-0.427C0.286,-0.403 0.275,-0.367 0.275,-0.321L0.275,-0L0.148,-0L0.148,-0.799L0.275,-0.799L0.275,-0.527C0.292,-0.546 0.315,-0.561 0.342,-0.572C0.369,-0.584 0.396,-0.589 0.425,-0.589C0.462,-0.589 0.496,-0.581 0.526,-0.564C0.555,-0.547 0.579,-0.525 0.595,-0.496C0.612,-0.467 0.621,-0.435 0.621,-0.399L0.621,-0Z" style="fill:white;fill-rule:nonzero;"/></g><g transform="matrix(1092.19,0,0,1092.19,330444,30100.4)"><path d="M0.49,-0.576L0.617,-0.576L0.617,-0L0.503,-0L0.503,-0.046L0.502,-0.064C0.486,-0.041 0.463,-0.023 0.433,-0.008C0.403,0.006 0.372,0.014 0.34,0.014C0.302,0.014 0.269,0.005 0.239,-0.011C0.209,-0.028 0.186,-0.051 0.169,-0.08C0.152,-0.109 0.144,-0.141 0.144,-0.176L0.144,-0.576L0.271,-0.576L0.271,-0.196C0.271,-0.181 0.276,-0.166 0.284,-0.153C0.292,-0.14 0.304,-0.13 0.318,-0.123C0.333,-0.115 0.349,-0.111 0.366,-0.111C0.406,-0.111 0.436,-0.124 0.458,-0.148C0.479,-0.173 0.49,-0.208 0.49,-0.254L0.49,-0.576Z" style="fill:white;fill-rule:nonzero;"/></g><g transform="matrix(1092.19,0,0,1092.19,331339,30100.4)"><path d="M0.361,0.019C0.308,0.019 0.26,0.011 0.219,-0.004C0.178,-0.019 0.139,-0.044 0.101,-0.077L0.178,-0.167C0.201,-0.144 0.227,-0.127 0.254,-0.115C0.282,-0.103 0.31,-0.097 0.339,-0.097C0.376,-0.097 0.404,-0.103 0.424,-0.115C0.444,-0.127 0.454,-0.145 0.454,-0.167C0.454,-0.182 0.448,-0.194 0.436,-0.204C0.424,-0.214 0.407,-0.221 0.385,-0.225L0.292,-0.244C0.259,-0.25 0.231,-0.261 0.206,-0.278C0.182,-0.294 0.163,-0.313 0.15,-0.337C0.137,-0.36 0.131,-0.386 0.131,-0.414C0.131,-0.447 0.141,-0.477 0.161,-0.505C0.182,-0.533 0.209,-0.554 0.244,-0.57C0.279,-0.586 0.318,-0.594 0.359,-0.594C0.402,-0.594 0.441,-0.589 0.476,-0.578C0.511,-0.567 0.545,-0.549 0.579,-0.524L0.504,-0.433C0.484,-0.449 0.463,-0.461 0.44,-0.468C0.418,-0.476 0.392,-0.479 0.364,-0.479C0.344,-0.479 0.326,-0.477 0.31,-0.471C0.294,-0.466 0.282,-0.458 0.273,-0.448C0.264,-0.438 0.259,-0.427 0.259,-0.414C0.259,-0.399 0.266,-0.387 0.279,-0.378C0.293,-0.368 0.314,-0.361 0.344,-0.355L0.415,-0.341C0.47,-0.33 0.512,-0.31 0.542,-0.28C0.571,-0.251 0.586,-0.215 0.586,-0.171C0.586,-0.136 0.576,-0.105 0.556,-0.076C0.536,-0.047 0.509,-0.024 0.474,-0.007C0.44,0.01 0.402,0.019 0.361,0.019Z" style="fill:white;fill-rule:nonzero;"/></g></g><g transform="matrix(1.26382,0,0,1.26382,-4345.11,-14695.9)"><g transform="matrix(1092.19,0,0,1092.19,327091,30100.4)"><path d="M0.296,-0L0.164,-0L0.164,-0.799L0.659,-0.799L0.659,-0.675L0.296,-0.675L0.296,-0.458L0.631,-0.458L0.631,-0.336L0.296,-0.336L0.296,-0Z" style="fill:white;fill-rule:nonzero;"/></g><g transform="matrix(1092.19,0,0,1092.19,327995,30100.4)"><path d="M0.381,-0.619C0.356,-0.619 0.333,-0.623 0.313,-0.631C0.294,-0.64 0.278,-0.652 0.267,-0.667C0.256,-0.682 0.25,-0.699 0.25,-0.718C0.25,-0.737 0.256,-0.755 0.267,-0.77C0.278,-0.785 0.294,-0.797 0.313,-0.805C0.333,-0.814 0.356,-0.818 0.381,-0.818C0.406,-0.818 0.428,-0.814 0.448,-0.805C0.468,-0.797 0.484,-0.785 0.495,-0.77C0.506,-0.755 0.511,-0.737 0.511,-0.718C0.511,-0.699 0.506,-0.682 0.495,-0.667C0.484,-0.652 0.468,-0.64 0.448,-0.631C0.428,-0.623 0.406,-0.619 0.381,-0.619ZM0.381,-0.679C0.396,-0.679 0.408,-0.683 0.419,-0.691C0.43,-0.699 0.436,-0.709 0.436,-0.72C0.436,-0.73 0.43,-0.739 0.419,-0.747C0.408,-0.755 0.396,-0.759 0.381,-0.759C0.366,-0.759 0.353,-0.755 0.343,-0.747C0.332,-0.739 0.326,-0.73 0.326,-0.72C0.326,-0.709 0.332,-0.699 0.343,-0.691C0.353,-0.683 0.366,-0.679 0.381,-0.679ZM0.327,0.018C0.287,0.018 0.252,0.01 0.221,-0.006C0.19,-0.023 0.166,-0.045 0.148,-0.074C0.131,-0.104 0.122,-0.137 0.122,-0.174C0.122,-0.224 0.137,-0.264 0.167,-0.293C0.197,-0.323 0.241,-0.341 0.298,-0.349L0.471,-0.372L0.471,-0.41C0.471,-0.425 0.467,-0.438 0.458,-0.449C0.45,-0.461 0.438,-0.47 0.423,-0.476C0.408,-0.483 0.391,-0.486 0.371,-0.486C0.346,-0.486 0.316,-0.482 0.282,-0.473C0.248,-0.465 0.217,-0.454 0.189,-0.44L0.139,-0.54C0.178,-0.559 0.216,-0.573 0.252,-0.582C0.289,-0.59 0.329,-0.595 0.372,-0.595C0.448,-0.595 0.505,-0.578 0.542,-0.545C0.58,-0.512 0.599,-0.462 0.599,-0.396L0.599,-0.126C0.599,-0.114 0.604,-0.103 0.613,-0.094C0.623,-0.085 0.636,-0.079 0.653,-0.076L0.617,0.019C0.551,0.014 0.509,-0.009 0.49,-0.05C0.48,-0.03 0.46,-0.013 0.43,-0.001C0.4,0.012 0.366,0.018 0.327,0.018ZM0.34,-0.089C0.382,-0.089 0.414,-0.1 0.437,-0.12C0.459,-0.141 0.471,-0.17 0.471,-0.208L0.471,-0.266L0.364,-0.255C0.322,-0.251 0.29,-0.242 0.267,-0.228C0.245,-0.214 0.233,-0.196 0.233,-0.174C0.233,-0.147 0.243,-0.126 0.261,-0.111C0.279,-0.097 0.305,-0.089 0.34,-0.089Z" style="fill:white;fill-rule:nonzero;"/></g><g transform="matrix(1092.19,0,0,1092.19,328876,30100.4)"><path d="M0.42,-0.58C0.428,-0.58 0.436,-0.58 0.443,-0.579C0.451,-0.578 0.457,-0.577 0.46,-0.576L0.46,-0.449C0.451,-0.45 0.442,-0.451 0.434,-0.451C0.402,-0.451 0.374,-0.445 0.35,-0.433C0.325,-0.421 0.306,-0.404 0.292,-0.382C0.279,-0.36 0.272,-0.335 0.272,-0.306L0.272,-0L0.146,-0L0.146,-0.576L0.26,-0.576L0.26,-0.479C0.272,-0.511 0.292,-0.537 0.321,-0.554C0.351,-0.571 0.384,-0.58 0.42,-0.58Z" style="fill:white;fill-rule:nonzero;"/></g><g transform="matrix(1092.19,0,0,1092.19,329508,30100.4)"><path d="M0.49,-0.576L0.617,-0.576L0.617,-0L0.503,-0L0.503,-0.046L0.502,-0.064C0.486,-0.041 0.463,-0.023 0.433,-0.008C0.403,0.006 0.372,0.014 0.34,0.014C0.302,0.014 0.269,0.005 0.239,-0.011C0.209,-0.028 0.186,-0.051 0.169,-0.08C0.152,-0.109 0.144,-0.141 0.144,-0.176L0.144,-0.576L0.271,-0.576L0.271,-0.196C0.271,-0.181 0.276,-0.166 0.284,-0.153C0.292,-0.14 0.304,-0.13 0.318,-0.123C0.333,-0.115 0.349,-0.111 0.366,-0.111C0.406,-0.111 0.436,-0.124 0.458,-0.148C0.479,-0.173 0.49,-0.208 0.49,-0.254L0.49,-0.576Z" style="fill:white;fill-rule:nonzero;"/></g><g transform="matrix(1092.19,0,0,1092.19,330403,30100.4)"><path d="M0.146,0.181L0.146,-0.576L0.258,-0.576L0.258,-0.516C0.275,-0.54 0.298,-0.558 0.326,-0.571C0.355,-0.584 0.382,-0.591 0.41,-0.591C0.459,-0.591 0.503,-0.578 0.543,-0.552C0.583,-0.527 0.614,-0.491 0.636,-0.444C0.659,-0.398 0.67,-0.346 0.67,-0.288C0.67,-0.23 0.659,-0.179 0.637,-0.133C0.615,-0.088 0.584,-0.053 0.545,-0.028C0.506,-0.002 0.462,0.01 0.413,0.01C0.386,0.01 0.359,0.005 0.332,-0.005C0.305,-0.016 0.285,-0.028 0.274,-0.043L0.274,0.181L0.146,0.181ZM0.401,-0.104C0.43,-0.104 0.454,-0.111 0.475,-0.126C0.496,-0.141 0.512,-0.162 0.523,-0.19C0.535,-0.217 0.541,-0.249 0.541,-0.286C0.541,-0.323 0.535,-0.355 0.524,-0.383C0.513,-0.41 0.497,-0.432 0.477,-0.447C0.456,-0.462 0.433,-0.469 0.405,-0.469C0.363,-0.469 0.33,-0.457 0.308,-0.433C0.285,-0.408 0.274,-0.373 0.274,-0.327L0.274,-0.246C0.274,-0.217 0.279,-0.192 0.289,-0.171C0.3,-0.149 0.314,-0.133 0.333,-0.121C0.353,-0.109 0.375,-0.104 0.401,-0.104Z" style="fill:white;fill-rule:nonzero;"/></g></g></g></svg>